<?xml version="1.0" encoding="UTF-8"?>
<svg width="135px" height="40px" viewBox="0 0 135 40" version="1.1" xmlns="http://www.w3.org/2000/svg" xmlns:xlink="http://www.w3.org/1999/xlink">
    <!-- Generator: Sketch 51.2 (57519) - http://www.bohemiancoding.com/sketch -->
    <title>get-in-google-play</title>
    <desc>Created with Sketch.</desc>
    <defs>
        <linearGradient x1="91.4895098%" y1="4.9604069%" x2="-38.3173161%" y2="71.909245%" id="linearGradient-1">
            <stop stop-color="#00A0FF" offset="0%"></stop>
            <stop stop-color="#00A1FF" offset="0.66%"></stop>
            <stop stop-color="#00BEFF" offset="26.01%"></stop>
            <stop stop-color="#00D2FF" offset="51.22%"></stop>
            <stop stop-color="#00DFFF" offset="76.04%"></stop>
            <stop stop-color="#00E3FF" offset="100%"></stop>
        </linearGradient>
        <linearGradient x1="107.585647%" y1="50.0163647%" x2="-130.492257%" y2="50.0163647%" id="linearGradient-2">
            <stop stop-color="#FFE000" offset="0%"></stop>
            <stop stop-color="#FFBD00" offset="40.87%"></stop>
            <stop stop-color="#FFA500" offset="77.54%"></stop>
            <stop stop-color="#FF9C00" offset="100%"></stop>
        </linearGradient>
        <linearGradient x1="86.237735%" y1="117.851014%" x2="-50.1313759%" y2="294.785269%" id="linearGradient-3">
            <stop stop-color="#FF3A44" offset="0%"></stop>
            <stop stop-color="#C31162" offset="100%"></stop>
        </linearGradient>
        <linearGradient x1="-18.8012883%" y1="-154.171052%" x2="42.0936259%" y2="-75.1365546%" id="linearGradient-4">
            <stop stop-color="#32A071" offset="0%"></stop>
            <stop stop-color="#2DA771" offset="6.85%"></stop>
            <stop stop-color="#15CF74" offset="47.62%"></stop>
            <stop stop-color="#06E775" offset="80.09%"></stop>
            <stop stop-color="#00F076" offset="100%"></stop>
        </linearGradient>
    </defs>
    <g id="Page-1" stroke="none" stroke-width="1" fill="none" fill-rule="evenodd">
        <g id="get-in-google-play" fill-rule="nonzero">
            <g id="g10" transform="translate(67.500000, 20.000000) scale(-1, 1) rotate(-180.000000) translate(-67.500000, -20.000000) translate(0.000000, 0.000000)">
                <path d="M130,1.42108547e-14 L5,1.42108547e-14 C2.25125,1.42108547e-14 3.983197e-15,2.25125 3.983197e-15,5 L3.983197e-15,35 C3.983197e-15,37.74875 2.25125,40 5,40 L130,40 C132.74875,40 135,37.74875 135,35 L135,5 C135,2.25125 132.74875,1.42108547e-14 130,1.42108547e-14 Z" id="path14" fill="#000000"></path>
                <g id="Group" transform="translate(9.000000, 7.000000)">
                    <g id="g18" transform="translate(36.177838, 22.490433) scale(-1, 1) rotate(-180.000000) translate(-36.177838, -22.490433) translate(33.068395, 19.040467)" fill="#FFFFFF" stroke="#FFFFFF" stroke-width="0.625">
                        <path d="M6.13679676,3.6742143 C6.13679676,4.44240684 5.88804131,5.05765086 5.39799309,5.51649641 C4.83456202,6.06044112 4.10073346,6.33413846 3.20148254,6.33413846 C2.34203249,6.33413846 1.60820393,6.05584117 1.00621576,5.5072965 C0.402983816,4.9507019 0.101989731,4.26760854 0.101989731,3.44996648 C0.101989731,2.63232443 0.402983816,1.94923106 1.00621576,1.39723643 C1.60820393,0.8440918 2.34203249,0.565794503 3.20148254,0.565794503 C3.6293419,0.565794503 4.03730083,0.64744371 4.42660309,0.799242235 C4.81466158,0.952190749 5.13058099,1.15918874 5.359436,1.41448626 L4.83953713,1.89978154 C4.44028464,1.46393578 3.896754,1.24888787 3.20148254,1.24888787 C2.57461883,1.24888787 2.03108818,1.4512859 1.56964684,1.85953193 C1.1131806,2.26892796 0.884325597,2.79907281 0.884325597,3.44996648 C0.884325597,4.10086016 1.1131806,4.63560496 1.56964684,5.04500099 C2.03108818,5.44864707 2.57461883,5.65564506 3.20148254,5.65564506 C3.86690335,5.65564506 4.42660309,5.44864707 4.868144,5.04040103 C5.15918787,4.77015366 5.32461024,4.39755728 5.36814244,3.9214619 L3.20148254,3.9214619 L3.20148254,3.25676836 L6.09202078,3.25676836 C6.12684654,3.40051696 6.13679676,3.53966561 6.13679676,3.6742143 Z" id="path20"></path>
                    </g>
                    <g id="g22" transform="translate(41.774836, 22.490433) scale(-1, 1) rotate(-180.000000) translate(-41.774836, -22.490433) translate(39.287281, 19.040467)" fill="#FFFFFF" stroke="#FFFFFF" stroke-width="0.625">
                        <polygon id="path24" points="4.50371728 1.36963669 1.78855163 1.36963669 1.78855163 3.11761971 4.23630518 3.11761971 4.23630518 3.78231325 1.78855163 3.78231325 1.78855163 5.53029627 4.50371728 5.53029627 4.50371728 6.20763969 1.01989731 6.20763969 1.01989731 0.692293274 4.50371728 0.692293274"></polygon>
                    </g>
                    <g id="g26" transform="translate(46.749944, 22.490433) scale(-1, 1) rotate(-180.000000) translate(-46.749944, -22.490433) translate(44.262390, 19.040467)" fill="#FFFFFF" stroke="#FFFFFF" stroke-width="0.625">
                        <polygon id="path28" points="2.76491674 6.20763969 1.99626242 6.20763969 1.99626242 1.36963669 0.330844738 1.36963669 0.330844738 0.692293274 4.4315782 0.692293274 4.4315782 1.36963669 2.76491674 1.36963669 2.76491674 6.20763969"></polygon>
                    </g>
                    <g id="g30" transform="translate(51.725053, 22.490433) scale(-1, 1) rotate(-180.000000) translate(-51.725053, -22.490433) translate(50.481276, 19.040467)" fill="#FFFFFF" stroke="#FFFFFF" stroke-width="0.625">
                        <polygon id="path32" points="1.18034457 6.20763969 1.18034457 0.692293274 1.94775511 0.692293274 1.94775511 6.20763969"></polygon>
                    </g>
                    <g id="g34" transform="translate(55.456385, 22.490433) scale(-1, 1) rotate(-180.000000) translate(-55.456385, -22.490433) translate(52.968830, 19.040467)" fill="#FFFFFF" stroke="#FFFFFF" stroke-width="0.625">
                        <polygon id="path36" points="2.86193136 6.20763969 2.09949593 6.20763969 2.09949593 1.36963669 0.42785936 1.36963669 0.42785936 0.692293274 4.53356793 0.692293274 4.53356793 1.36963669 2.86193136 1.36963669"></polygon>
                    </g>
                    <g id="g38" transform="translate(62.919048, 22.490433) scale(-1, 1) rotate(-180.000000) translate(-62.919048, -22.490433) translate(59.187716, 19.040467)" fill="#FFFFFF" stroke="#FFFFFF" stroke-width="0.625">
                        <path d="M6.07833923,5.49809659 C5.49003261,6.05584117 4.76117916,6.33413846 3.89177889,6.33413846 C3.01740351,6.33413846 2.28855007,6.05584117 1.70024345,5.49809659 C1.1131806,4.94150199 0.820892959,4.25840863 0.820892959,3.44996648 C0.820892959,2.64152434 1.1131806,1.95843097 1.70024345,1.40183638 C2.28855007,0.8440918 3.01740351,0.565794503 3.89177889,0.565794503 C4.75620405,0.565794503 5.4850575,0.8440918 6.07336412,1.40643634 C6.66540207,1.96763088 6.95768972,2.64612429 6.95768972,3.44996648 C6.95768972,4.25840863 6.66540207,4.94150199 6.07833923,5.49809659 Z M2.26864963,5.03580108 C2.71143432,5.44864707 3.24998985,5.65564506 3.89177889,5.65564506 C4.52859282,5.65564506 5.07212346,5.44864707 5.50993304,5.03580108 C5.95147395,4.62295509 6.17535385,4.09281024 6.17535385,3.44996648 C6.17535385,2.80712273 5.95147395,2.27697788 5.50993304,1.86413189 C5.07212346,1.4512859 4.52859282,1.24428791 3.89177889,1.24428791 C3.24998985,1.24428791 2.71143432,1.4512859 2.26864963,1.86413189 C1.82710872,2.27697788 1.60322882,2.80712273 1.60322882,3.44996648 C1.60322882,4.09281024 1.82710872,4.62295509 2.26864963,5.03580108 Z" id="path40"></path>
                    </g>
                    <g id="g42" transform="translate(69.759823, 22.490433) scale(-1, 1) rotate(-180.000000) translate(-69.759823, -22.490433) translate(66.650380, 19.040467)" fill="#FFFFFF" stroke="#FFFFFF" stroke-width="0.625">
                        <polygon id="path44" points="0.573381294 6.20763969 0.573381294 0.692293274 1.5062142 0.692293274 4.40670266 4.9817516 4.44028464 4.9817516 4.40670266 3.9214619 4.40670266 0.692293274 5.1741132 0.692293274 5.1741132 6.20763969 4.37312067 6.20763969 1.33581672 1.70658342 1.30223474 1.70658342 1.33581672 2.77147307 1.33581672 6.20763969 0.573381294 6.20763969"></polygon>
                    </g>
                    <path d="M59.8195553,11.6782384 C57.4824979,11.6782384 55.5732999,10.0337544 55.5732999,7.76482645 C55.5732999,5.51429832 57.4824979,3.85256446 59.8195553,3.85256446 C62.1615878,3.85256446 64.0707858,5.51429832 64.0707858,7.76482645 C64.0707858,10.0337544 62.1615878,11.6782384 59.8195553,11.6782384 Z M59.8195553,5.39354949 C58.537221,5.39354949 57.4339906,6.37218998 57.4339906,7.76482645 C57.4339906,9.17586275 58.537221,10.1372534 59.8195553,10.1372534 C61.1018896,10.1372534 62.2100951,9.17586275 62.2100951,7.76482645 C62.2100951,6.37218998 61.1018896,5.39354949 59.8195553,5.39354949 Z M50.5546588,11.6782384 C48.2126264,11.6782384 46.3084034,10.0337544 46.3084034,7.76482645 C46.3084034,5.51429832 48.2126264,3.85256446 50.5546588,3.85256446 C52.8954476,3.85256446 54.8009142,5.51429832 54.8009142,7.76482645 C54.8009142,10.0337544 52.8954476,11.6782384 50.5546588,11.6782384 Z M50.5546588,5.39354949 C49.2710808,5.39354949 48.164119,6.37218998 48.164119,7.76482645 C48.164119,9.17586275 49.2710808,10.1372534 50.5546588,10.1372534 C51.8369931,10.1372534 52.9402235,9.17586275 52.9402235,7.76482645 C52.9402235,6.37218998 51.8369931,5.39354949 50.5546588,5.39354949 Z M39.5298176,10.4788001 L39.5298176,8.81591624 L43.8245804,8.81591624 C43.6989589,7.88672527 43.363139,7.20363191 42.8482152,6.72753653 C42.2213515,6.15254212 41.2449864,5.51429832 39.5298176,5.51429832 C36.8867911,5.51429832 34.8171458,7.48652916 34.8171458,9.93025542 C34.8171458,12.3739817 36.8867911,14.3462125 39.5298176,14.3462125 C40.9589177,14.3462125 41.9987154,13.8298675 42.766126,13.160574 L44.0335349,14.3324127 C42.9601552,15.2800034 41.532299,16.0079464 39.5298176,16.0079464 C35.9054509,16.0079464 32.8594405,13.2813229 32.8594405,9.93025542 C32.8594405,6.57918797 35.9054509,3.85256446 39.5298176,3.85256446 C41.4887668,3.85256446 42.9601552,4.4459587 44.116868,5.55914788 C45.3021877,6.65508724 45.6715895,8.19607227 45.6715895,9.44036018 C45.6715895,9.82675642 45.6367638,10.182103 45.5745749,10.4788001 L39.5298176,10.4788001 Z M84.6117664,9.18966261 C84.262265,10.0648041 83.1839102,11.6782384 80.9873996,11.6782384 C78.8107895,11.6782384 76.9986061,10.0924038 76.9986061,7.76482645 C76.9986061,5.57294775 78.7921329,3.85256446 81.1963542,3.85256446 C83.140378,3.85256446 84.262265,4.94850382 84.7237064,5.58674762 L83.2809248,6.47568898 C82.799583,5.8247953 82.1441124,5.39354949 81.1963542,5.39354949 C80.2548149,5.39354949 79.5794438,5.79259562 79.1466094,6.57918797 L84.8070394,8.74461694 L84.6117664,9.18966261 Z M78.8406402,7.88672527 C78.7921329,9.39551061 80.1080491,10.1683031 81.0508323,10.1683031 C81.7896359,10.1683031 82.4164996,9.82675642 82.6254542,9.33801117 L78.8406402,7.88672527 Z M74.2399083,4.09061215 L76.100599,4.09061215 L76.100599,15.5905004 L74.2399083,15.5905004 L74.2399083,4.09061215 Z M71.1926541,10.8065469 L71.1304652,10.8065469 C70.7125561,11.2642425 69.9152949,11.6782384 68.9053478,11.6782384 C66.7859514,11.6782384 64.8481465,9.95785515 64.8481465,7.75217658 C64.8481465,5.55914788 66.7859514,3.85256446 68.9053478,3.85256446 C69.9152949,3.85256446 70.7125561,4.27001041 71.1304652,4.74150583 L71.1926541,4.74150583 L71.1926541,4.18031128 C71.1926541,2.68417581 70.3282289,1.88033362 68.9339547,1.88033362 C67.7971423,1.88033362 67.0919206,2.63932625 66.8008768,3.27757005 L65.1827226,2.65312612 C65.6491391,1.61583619 66.8842098,0.339348594 68.9339547,0.339348594 C71.1155399,0.339348594 72.9563302,1.52613706 72.9563302,4.41375901 L72.9563302,11.4401907 L71.1926541,11.4401907 L71.1926541,10.8065469 Z M69.0645513,5.39354949 C67.782217,5.39354949 66.7088373,6.38598985 66.7088373,7.75217658 C66.7088373,9.13101318 67.782217,10.1372534 69.0645513,10.1372534 C70.3282289,10.1372534 71.3244945,9.13101318 71.3244945,7.75217658 C71.3244945,6.38598985 70.3282289,5.39354949 69.0645513,5.39354949 Z M93.323182,15.5905004 L88.8729471,15.5905004 L88.8729471,4.09061215 L90.7286627,4.09061215 L90.7286627,8.44791982 L93.323182,8.44791982 C95.3841208,8.44791982 97.4052588,9.82675642 97.4052588,12.0197851 C97.4052588,14.2116638 95.3791457,15.5905004 93.323182,15.5905004 Z M93.3716893,10.0475543 L90.7286627,10.0475543 L90.7286627,13.990866 L93.3716893,13.990866 C94.7572571,13.990866 95.5482994,12.9271263 95.5482994,12.0197851 C95.5482994,11.1296938 94.7572571,10.0475543 93.3716893,10.0475543 Z M104.843047,11.7000882 C103.502255,11.7000882 102.10798,11.1526935 101.534599,9.93945533 L103.18136,9.30121153 C103.535837,9.93945533 104.187576,10.1464533 104.876629,10.1464533 C105.839312,10.1464533 106.815677,9.61170851 106.830603,8.66756768 L106.830603,8.54681886 C106.494783,8.72621711 105.775879,8.99186453 104.891554,8.99186453 C103.117928,8.99186453 101.310719,8.0891233 101.310719,6.40438967 C101.310719,4.86340464 102.763451,3.87096428 104.396531,3.87096428 C105.645283,3.87096428 106.334335,4.39190922 106.76717,4.99795334 L106.830603,4.99795334 L106.830603,4.10901197 L108.622885,4.10901197 L108.622885,8.52036911 C108.622885,10.5592993 106.976124,11.7000882 104.843047,11.7000882 Z M104.619167,5.39814945 C104.012203,5.39814945 103.166435,5.67644674 103.166435,6.37218998 C103.166435,7.26228134 104.221158,7.60382802 105.13409,7.60382802 C105.951252,7.60382802 106.334335,7.43707964 106.830603,7.21743177 C106.685081,6.15254212 105.69379,5.39814945 104.619167,5.39814945 Z M115.152716,11.4482407 L113.019638,6.4630391 L112.956205,6.4630391 L110.750988,11.4482407 L108.749751,11.4482407 L112.063173,4.48160835 L110.172632,0.604996013 L112.111681,0.604996013 L117.217386,11.4482407 L115.152716,11.4482407 Z M98.4251561,4.09061215 L100.285847,4.09061215 L100.285847,15.5905004 L98.4251561,15.5905004 L98.4251561,4.09061215 Z" id="path46" fill="#FFFFFF"></path>
                    <g id="g48" transform="translate(0.730188, 0.640646)" fill="url(#linearGradient-1)">
                        <path d="M1.67661168,24.1141157 C1.38432404,23.8312185 1.21517033,23.3907728 1.21517033,22.8203783 L1.21517033,2.47477596 C1.21517033,1.9043815 1.38432404,1.46393578 1.67661168,1.18103853 L1.74875076,1.11893913 L14.079558,12.5153284 L14.079558,12.7844258 L1.74875076,24.1808151 L1.67661168,24.1141157 Z" id="path64"></path>
                    </g>
                    <g id="g66" transform="translate(14.411737, 8.690567)" fill="url(#linearGradient-2)">
                        <path d="M4.50371728,0.664693542 L0.398008707,4.46540662 L0.398008707,4.734504 L4.50869239,8.53521708 L4.6007319,8.48576756 L9.4688759,5.92474244 C10.858175,5.1979495 10.858175,4.00196112 9.4688759,3.27056823 L4.6007319,0.714143062 L4.50371728,0.664693542 Z" id="path78"></path>
                    </g>
                    <g id="g80" transform="translate(1.973965, 0.640646)" fill="url(#linearGradient-3)">
                        <path d="M17.038504,8.76406486 L12.8357808,12.6498771 L0.432834469,1.18103853 C0.894275814,0.732542883 1.64676103,0.678493408 2.50247975,1.12698905 L17.038504,8.76406486" id="path88"></path>
                    </g>
                    <g id="g90" transform="translate(1.973965, 13.290523)" fill="url(#linearGradient-4)">
                        <path d="M17.038504,3.88581225 L2.50247975,11.5228881 C1.64676103,11.9667837 0.894275814,11.9127343 0.432834469,11.4642386 L12.8357808,0 L17.038504,3.88581225 Z" id="path104"></path>
                    </g>
                </g>
            </g>
        </g>
    </g>
</svg>