<?xml version="1.0" encoding="UTF-8"?>
<svg width="135px" height="40px" viewBox="0 0 135 40" version="1.1" xmlns="http://www.w3.org/2000/svg" xmlns:xlink="http://www.w3.org/1999/xlink">
    <!-- Generator: Sketch 51.2 (57519) - http://www.bohemiancoding.com/sketch -->
    <title>download-app-store</title>
    <desc>Created with Sketch.</desc>
    <defs></defs>
    <g id="Page-1" stroke="none" stroke-width="1" fill="none" fill-rule="evenodd">
        <g id="download-app-store" fill-rule="nonzero">
            <path d="M134.998986,35.9903685 C134.998986,38.2056114 133.261093,40 131.111541,40 L3.89251487,40 C1.74397645,40 0,38.2056114 0,35.9903685 L0,4.014866 C0,1.80067002 1.74397645,0 3.89251487,0 L131.111541,0 C133.262107,0 134.998986,1.80067002 134.998986,4.014866 L135,35.9903685 L134.998986,35.9903685 Z" id="Shape" fill="#000000"></path>
            <g id="Group" transform="translate(11.911765, 5.853659)" fill="#FFFFFF">
                <path d="M17.9947059,13.4478049 C17.9659191,10.3034146 20.6143015,8.77365854 20.7354044,8.70243902 C19.2355147,6.55317073 16.9107353,6.2595122 16.0937868,6.23609756 C14.14125,6.03414634 12.2472794,7.38439024 11.2526471,7.38439024 C10.2381618,7.38439024 8.70650735,6.25560976 7.05573529,6.28878049 C4.93147059,6.32097561 2.94419118,7.5297561 1.85426471,9.40682927 C-0.395073529,13.2341463 1.2825,18.8585366 3.43753676,21.9521951 C4.51555147,23.4673171 5.77522059,25.1590244 7.42400735,25.0995122 C9.03705882,25.0341463 9.63959559,24.0887805 11.5861765,24.0887805 C13.5148897,24.0887805 14.0806985,25.0995122 15.7622426,25.0614634 C17.4934191,25.0341463 18.5833456,23.5395122 19.6236397,22.0107317 C20.8694118,20.2741463 21.3697059,18.5639024 21.3895588,18.4760976 C21.3488603,18.462439 18.0274632,17.2165854 17.9947059,13.4478049 Z" id="Shape"></path>
                <path d="M14.8182353,4.20097561 C15.6858088,3.13463415 16.2794118,1.68390244 16.1146324,0.211707317 C14.8589338,0.266341463 13.2885662,1.06536585 12.3842647,2.10829268 C11.5841912,3.02731707 10.8694853,4.53365854 11.0541176,5.9502439 C12.4646691,6.05365854 13.9129412,5.25073171 14.8182353,4.20097561 Z" id="Shape"></path>
            </g>
            <g id="Group" transform="translate(41.691176, 17.560976)" fill="#FFFFFF">
                <path d="M11.559375,13.1746341 L9.30507353,13.1746341 L8.07022059,9.36097561 L3.77801471,9.36097561 L2.60172794,13.1746341 L0.406985294,13.1746341 L4.65948529,0.191219512 L7.28602941,0.191219512 L11.559375,13.1746341 Z M7.69797794,7.76097561 L6.58125,4.37073171 C6.463125,4.02439024 6.24176471,3.20878049 5.91518382,1.92487805 L5.87547794,1.92487805 C5.74544118,2.47707317 5.53599265,3.29268293 5.248125,4.37073171 L4.15125,7.76097561 L7.69797794,7.76097561 Z" id="Shape"></path>
                <path d="M22.4953676,8.37853659 C22.4953676,9.97073171 22.0576103,11.2292683 21.1820956,12.1531707 C20.3979044,12.9756098 19.4241176,13.3863415 18.2617279,13.3863415 C17.0070221,13.3863415 16.1056985,12.9434146 15.5567647,12.057561 L15.5170588,12.057561 L15.5170588,16.9892683 L13.4007353,16.9892683 L13.4007353,6.89463415 C13.4007353,5.89365854 13.3739338,4.86634146 13.3223162,3.81268293 L15.1835294,3.81268293 L15.3016544,5.29658537 L15.3413603,5.29658537 C16.0471324,4.17853659 17.1181985,3.6204878 18.5555515,3.6204878 C19.6792279,3.6204878 20.6172794,4.05658537 21.3677206,4.9297561 C22.1201471,5.80390244 22.4953676,6.95317073 22.4953676,8.37853659 Z M20.3393382,8.45463415 C20.3393382,7.54341463 20.1308824,6.79219512 19.7119853,6.20097561 C19.254375,5.58439024 18.6399265,5.27609756 17.8696324,5.27609756 C17.3475,5.27609756 16.8730147,5.44780488 16.4491544,5.78634146 C16.0243015,6.12780488 15.7463603,6.57365854 15.6163235,7.12585366 C15.5508088,7.38341463 15.5180515,7.59414634 15.5180515,7.76 L15.5180515,9.32097561 C15.5180515,10.0019512 15.7304779,10.5765854 16.1553309,11.0458537 C16.5801838,11.515122 17.1320956,11.7492683 17.8110662,11.7492683 C18.6081618,11.7492683 19.2285662,11.4468293 19.6722794,10.8439024 C20.1169853,10.24 20.3393382,9.44390244 20.3393382,8.45463415 Z" id="Shape"></path>
                <path d="M33.4512132,8.37853659 C33.4512132,9.97073171 33.0134559,11.2292683 32.1369485,12.1531707 C31.35375,12.9756098 30.3799632,13.3863415 29.2175735,13.3863415 C27.9628676,13.3863415 27.0615441,12.9434146 26.5136029,12.057561 L26.4738971,12.057561 L26.4738971,16.9892683 L24.3575735,16.9892683 L24.3575735,6.89463415 C24.3575735,5.89365854 24.3307721,4.86634146 24.2791544,3.81268293 L26.1403676,3.81268293 L26.2584926,5.29658537 L26.2981985,5.29658537 C27.0029779,4.17853659 28.0740441,3.6204878 29.5123897,3.6204878 C30.6350735,3.6204878 31.573125,4.05658537 32.3255515,4.9297561 C33.075,5.80390244 33.4512132,6.95317073 33.4512132,8.37853659 Z M31.2951838,8.45463415 C31.2951838,7.54341463 31.0857353,6.79219512 30.6668382,6.20097561 C30.2092279,5.58439024 29.5967647,5.27609756 28.8254779,5.27609756 C28.3023529,5.27609756 27.8288603,5.44780488 27.4040074,5.78634146 C26.9791544,6.12780488 26.7022059,6.57365854 26.5721691,7.12585366 C26.5076471,7.38341463 26.4738971,7.59414634 26.4738971,7.76 L26.4738971,9.32097561 C26.4738971,10.0019512 26.6863235,10.5765854 27.1091912,11.0458537 C27.5340441,11.5141463 28.0859559,11.7492683 28.7669118,11.7492683 C29.5640074,11.7492683 30.1844118,11.4468293 30.628125,10.8439024 C31.0728309,10.24 31.2951838,9.44390244 31.2951838,8.45463415 Z" id="Shape"></path>
                <path d="M45.7004779,9.53365854 C45.7004779,10.6380488 45.3103676,11.5365854 44.5271691,12.2302439 C43.6665441,12.9882927 42.4684191,13.3668293 40.9288235,13.3668293 C39.5073529,13.3668293 38.3677941,13.097561 37.5051838,12.5580488 L37.9955515,10.8243902 C38.9246691,11.3765854 39.9441176,11.6536585 41.0548897,11.6536585 C41.8519853,11.6536585 42.4723897,11.4760976 42.9180882,11.1229268 C43.3618015,10.7697561 43.5831618,10.2956098 43.5831618,9.70439024 C43.5831618,9.17756098 43.4005147,8.73365854 43.0342279,8.37365854 C42.6699265,8.01365854 42.0614338,7.67902439 41.2117279,7.3697561 C38.8988603,6.52195122 37.7434191,5.28 37.7434191,3.64682927 C37.7434191,2.5795122 38.1484191,1.70439024 38.9594118,1.02341463 C39.7674265,0.341463415 40.8454412,0.000975609756 42.1934559,0.000975609756 C43.3955515,0.000975609756 44.3941544,0.206829268 45.19125,0.617560976 L44.6621691,2.31317073 C43.9176838,1.91512195 43.0759191,1.71609756 42.1338971,1.71609756 C41.3894118,1.71609756 40.8077206,1.89658537 40.3908088,2.25560976 C40.0384191,2.57658537 39.8617279,2.96780488 39.8617279,3.43121951 C39.8617279,3.94439024 40.0632353,4.36878049 40.4682353,4.70243902 C40.820625,5.01073171 41.4608824,5.34439024 42.39,5.70439024 C43.5265809,6.15414634 44.3613971,6.68 44.8984191,7.28292683 C45.4334559,7.88390244 45.7004779,8.63609756 45.7004779,9.53365854 Z" id="Shape"></path>
                <path d="M52.6976471,5.37365854 L50.3649265,5.37365854 L50.3649265,9.91902439 C50.3649265,11.075122 50.7758824,11.6526829 51.5997794,11.6526829 C51.9779779,11.6526829 52.2916544,11.6204878 52.5398162,11.5560976 L52.5983824,13.1356098 C52.1814706,13.2887805 51.6325368,13.3658537 50.9525735,13.3658537 C50.1167647,13.3658537 49.4636029,13.115122 48.9920956,12.6146341 C48.5225735,12.1131707 48.2863235,11.2721951 48.2863235,10.0907317 L48.2863235,5.37170732 L46.8966176,5.37170732 L46.8966176,3.81073171 L48.2863235,3.81073171 L48.2863235,2.09658537 L50.3649265,1.48 L50.3649265,3.81073171 L52.6976471,3.81073171 L52.6976471,5.37365854 Z" id="Shape"></path>
                <path d="M63.2216912,8.41658537 C63.2216912,9.85560976 62.8027941,11.0370732 61.9669853,11.9609756 C61.0904779,12.9121951 59.9270956,13.3863415 58.4768382,13.3863415 C57.0791912,13.3863415 55.9664338,12.9307317 55.1365809,12.0195122 C54.3067279,11.1082927 53.8918015,9.95804878 53.8918015,8.57170732 C53.8918015,7.12097561 54.3186397,5.93268293 55.1752941,5.00878049 C56.0299632,4.08390244 57.1834191,3.62146341 58.6336765,3.62146341 C60.0313235,3.62146341 61.1559926,4.07707317 62.0047059,4.98926829 C62.8166912,5.87414634 63.2216912,7.01658537 63.2216912,8.41658537 Z M61.0259559,8.48390244 C61.0259559,7.6204878 60.8383456,6.88 60.4581618,6.26243902 C60.0144485,5.51512195 59.3801471,5.14243902 58.5582353,5.14243902 C57.7075368,5.14243902 57.0613235,5.51609756 56.6176103,6.26243902 C56.2374265,6.88097561 56.0498162,7.63317073 56.0498162,8.52292683 C56.0498162,9.38634146 56.2374265,10.1268293 56.6176103,10.7434146 C57.0752206,11.4907317 57.7144853,11.8634146 58.539375,11.8634146 C59.3473897,11.8634146 59.9816912,11.4829268 60.4393015,10.7239024 C60.8294118,10.0946341 61.0259559,9.34634146 61.0259559,8.48390244 Z" id="Shape"></path>
                <path d="M70.1007353,5.64195122 C69.8912868,5.60390244 69.6679412,5.58439024 69.4336765,5.58439024 C68.6891912,5.58439024 68.1134559,5.8604878 67.7084559,6.41365854 C67.3560662,6.90146341 67.179375,7.51804878 67.179375,8.26243902 L67.179375,13.1746341 L65.0640441,13.1746341 L65.0838971,6.76097561 C65.0838971,5.68195122 65.0570956,4.6995122 65.0044853,3.81365854 L66.8478309,3.81365854 L66.9252574,5.60487805 L66.9838235,5.60487805 C67.2071691,4.98926829 67.5595588,4.49365854 68.0419853,4.12195122 C68.5134926,3.78731707 69.0227206,3.6204878 69.5716544,3.6204878 C69.7672059,3.6204878 69.9438971,3.63414634 70.1007353,3.65853659 L70.1007353,5.64195122 Z" id="Shape"></path>
                <path d="M79.5705882,8.05073171 C79.5705882,8.42341463 79.5457721,8.73756098 79.4931618,8.99414634 L73.1441912,8.99414634 C73.1690074,9.91902439 73.4757353,10.6263415 74.0653676,11.1141463 C74.6004044,11.5502439 75.2922794,11.7687805 76.1419853,11.7687805 C77.0820221,11.7687805 77.9396691,11.6214634 78.7109559,11.3258537 L79.0425,12.7697561 C78.1411765,13.1560976 77.0770588,13.3482927 75.8491544,13.3482927 C74.3720956,13.3482927 73.2126838,12.9209756 72.3689338,12.0673171 C71.5271691,11.2136585 71.1052941,10.0673171 71.1052941,8.62926829 C71.1052941,7.21756098 71.4973897,6.04195122 72.2825735,5.10439024 C73.1044853,4.10341463 74.2152574,3.60292683 75.6129044,3.60292683 C76.9857353,3.60292683 78.0250368,4.10341463 78.7308088,5.10439024 C79.2896691,5.8995122 79.5705882,6.88292683 79.5705882,8.05073171 Z M77.5525368,7.51121951 C77.5664338,6.89463415 77.4284559,6.36195122 77.1415809,5.91219512 C76.7752941,5.33365854 76.2124632,5.04487805 75.4550735,5.04487805 C74.7631985,5.04487805 74.2003676,5.32682927 73.7705515,5.89268293 C73.4181618,6.34243902 73.2087132,6.88195122 73.1441912,7.5102439 L77.5525368,7.5102439 L77.5525368,7.51121951 Z" id="Shape"></path>
            </g>
            <g id="Group" transform="translate(42.683824, 5.853659)" fill="#FFFFFF">
                <path d="M6.00551471,3.91121951 C6.00551471,5.0595122 5.65511029,5.92390244 4.95529412,6.50439024 C4.30709559,7.04 3.38591912,7.30829268 2.19275735,7.30829268 C1.60113971,7.30829268 1.09488971,7.28292683 0.671029412,7.23219512 L0.671029412,0.95804878 C1.22393382,0.870243902 1.81952206,0.825365854 2.46275735,0.825365854 C3.59933824,0.825365854 4.45599265,1.06829268 5.03371324,1.55414634 C5.68091912,2.10341463 6.00551471,2.88878049 6.00551471,3.91121951 Z M4.90863971,3.9395122 C4.90863971,3.19512195 4.708125,2.62439024 4.30709559,2.22634146 C3.90606618,1.82926829 3.32040441,1.6302439 2.54911765,1.6302439 C2.22154412,1.6302439 1.94261029,1.65170732 1.71132353,1.69658537 L1.71132353,6.46634146 C1.839375,6.48585366 2.07363971,6.49463415 2.41411765,6.49463415 C3.21022059,6.49463415 3.82466912,6.27707317 4.25746324,5.84195122 C4.69025735,5.40682927 4.90863971,4.77268293 4.90863971,3.9395122 Z" id="Shape"></path>
                <path d="M11.8214338,4.91414634 C11.8214338,5.62146341 11.6159559,6.20097561 11.205,6.65560976 C10.7741912,7.12292683 10.2034191,7.35609756 9.49069853,7.35609756 C8.80378676,7.35609756 8.25683824,7.13268293 7.84886029,6.68390244 C7.441875,6.23609756 7.23838235,5.67121951 7.23838235,4.9902439 C7.23838235,4.27804878 7.44783088,3.69365854 7.86871324,3.24 C8.28959559,2.78634146 8.85540441,2.55902439 9.568125,2.55902439 C10.2550368,2.55902439 10.8069485,2.78243902 11.2248529,3.2302439 C11.6219118,3.66536585 11.8214338,4.22731707 11.8214338,4.91414634 Z M10.7424265,4.94731707 C10.7424265,4.52292683 10.6491176,4.15902439 10.4634926,3.85560976 C10.2451103,3.48878049 9.93441176,3.30536585 9.53040441,3.30536585 C9.1125,3.30536585 8.79485294,3.48878049 8.57647059,3.85560976 C8.38985294,4.15902439 8.29753676,4.52878049 8.29753676,4.96585366 C8.29753676,5.3902439 8.39084559,5.75414634 8.57647059,6.05756098 C8.80180147,6.42439024 9.11547794,6.60780488 9.52047794,6.60780488 C9.91753676,6.60780488 10.2292279,6.42146341 10.4535662,6.04780488 C10.6461397,5.73853659 10.7424265,5.37170732 10.7424265,4.94731707 Z" id="Shape"></path>
                <path d="M19.6196691,2.65268293 L18.1555147,7.25170732 L17.2025735,7.25170732 L16.5960662,5.25463415 C16.4422059,4.75609756 16.3171324,4.2604878 16.2198529,3.76878049 L16.2009926,3.76878049 C16.1106618,4.27414634 15.9855882,4.76878049 15.8247794,5.25463415 L15.1805515,7.25170732 L14.2166912,7.25170732 L12.8398897,2.65268293 L13.9089706,2.65268293 L14.4380515,4.83902439 C14.5661029,5.35609756 14.6713235,5.84878049 14.7556985,6.31512195 L14.7745588,6.31512195 C14.8519853,5.93073171 14.9800368,5.44097561 15.1606985,4.84878049 L15.8247794,2.65365854 L16.6725,2.65365854 L17.3087868,4.80195122 C17.4626471,5.32585366 17.5877206,5.8302439 17.6840074,6.31609756 L17.7127941,6.31609756 C17.7832721,5.84292683 17.8894853,5.33853659 18.0304412,4.80195122 L18.5982353,2.65365854 L19.6196691,2.65365854 L19.6196691,2.65268293 Z" id="Shape"></path>
                <path d="M25.0127206,7.25170732 L23.9724265,7.25170732 L23.9724265,4.61756098 C23.9724265,3.80585366 23.65875,3.4 23.0294118,3.4 C22.7206985,3.4 22.4715441,3.51121951 22.2779779,3.73463415 C22.0863971,3.95804878 21.9891176,4.22146341 21.9891176,4.52292683 L21.9891176,7.25073171 L20.9488235,7.25073171 L20.9488235,3.96682927 C20.9488235,3.56292683 20.9359191,3.12487805 20.9111029,2.65073171 L21.8253309,2.65073171 L21.8739706,3.3697561 L21.9027574,3.3697561 C22.0238603,3.14634146 22.2045221,2.96195122 22.4417647,2.81463415 C22.7236765,2.64292683 23.0393382,2.55609756 23.3847794,2.55609756 C23.8215441,2.55609756 24.1848529,2.69463415 24.4737132,2.97268293 C24.8330515,3.31317073 25.0127206,3.82146341 25.0127206,4.49658537 L25.0127206,7.25170732 Z" id="Shape"></path>
                <polygon id="Shape" points="27.8814706 7.25170732 26.8421691 7.25170732 26.8421691 0.542439024 27.8814706 0.542439024"></polygon>
                <path d="M34.0061029,4.91414634 C34.0061029,5.62146341 33.800625,6.20097561 33.3896691,6.65560976 C32.9588603,7.12292683 32.3870956,7.35609756 31.6753676,7.35609756 C30.9874632,7.35609756 30.4405147,7.13268293 30.0335294,6.68390244 C29.6265441,6.23609756 29.4230515,5.67121951 29.4230515,4.9902439 C29.4230515,4.27804878 29.6325,3.69365854 30.0533824,3.24 C30.4742647,2.78634146 31.0400735,2.55902439 31.7518015,2.55902439 C32.4397059,2.55902439 32.990625,2.78243902 33.4095221,3.2302439 C33.8065809,3.66536585 34.0061029,4.22731707 34.0061029,4.91414634 Z M32.9261029,4.94731707 C32.9261029,4.52292683 32.8327941,4.15902439 32.6471691,3.85560976 C32.4297794,3.48878049 32.1180882,3.30536585 31.7150735,3.30536585 C31.2961765,3.30536585 30.9785294,3.48878049 30.7611397,3.85560976 C30.5745221,4.15902439 30.4822059,4.52878049 30.4822059,4.96585366 C30.4822059,5.3902439 30.5755147,5.75414634 30.7611397,6.05756098 C30.9864706,6.42439024 31.3001471,6.60780488 31.7051471,6.60780488 C32.1022059,6.60780488 32.4129044,6.42146341 32.6372426,6.04780488 C32.8308088,5.73853659 32.9261029,5.37170732 32.9261029,4.94731707 Z" id="Shape"></path>
                <path d="M39.0408088,7.25170732 L38.1067279,7.25170732 L38.0293015,6.72195122 L38.0005147,6.72195122 C37.6808824,7.14439024 37.2252574,7.35609756 36.6336397,7.35609756 C36.1919118,7.35609756 35.8345588,7.21658537 35.5655515,6.9395122 C35.3213603,6.68780488 35.1992647,6.37463415 35.1992647,6.00292683 C35.1992647,5.44097561 35.4375,5.01268293 35.9169485,4.71609756 C36.3954044,4.4195122 37.0684191,4.27414634 37.935,4.28097561 L37.935,4.19512195 C37.935,3.58926829 37.6113971,3.28682927 36.9631985,3.28682927 C36.5016176,3.28682927 36.0946324,3.40097561 35.7432353,3.62731707 L35.5318015,2.95609756 C35.9665809,2.69170732 36.5036029,2.55902439 37.1369118,2.55902439 C38.3598529,2.55902439 38.9733088,3.19317073 38.9733088,4.46146341 L38.9733088,6.15512195 C38.9733088,6.61463415 38.9961397,6.9804878 39.0408088,7.25170732 Z M37.9608088,5.67121951 L37.9608088,4.96195122 C36.8133088,4.94243902 36.2395588,5.25170732 36.2395588,5.88878049 C36.2395588,6.12878049 36.3050735,6.30829268 36.4390809,6.42829268 C36.5730882,6.54829268 36.7438235,6.60780488 36.9473162,6.60780488 C37.175625,6.60780488 37.3890441,6.53658537 37.5836029,6.39512195 C37.7791544,6.25268293 37.8992647,6.07219512 37.9439338,5.85073171 C37.9548529,5.80097561 37.9608088,5.7404878 37.9608088,5.67121951 Z" id="Shape"></path>
                <path d="M44.9520221,7.25170732 L44.0288603,7.25170732 L43.9802206,6.51317073 L43.9514338,6.51317073 C43.6566176,7.07512195 43.1543382,7.35609756 42.4485662,7.35609756 C41.8847426,7.35609756 41.4152206,7.13853659 41.0429779,6.70341463 C40.6707353,6.26829268 40.4851103,5.70341463 40.4851103,5.0097561 C40.4851103,4.26536585 40.6866176,3.66243902 41.0916176,3.20195122 C41.4837132,2.77268293 41.9641544,2.55804878 42.5359191,2.55804878 C43.1642647,2.55804878 43.6040074,2.76585366 43.8541544,3.18243902 L43.8740074,3.18243902 L43.8740074,0.542439024 L44.9152941,0.542439024 L44.9152941,6.01268293 C44.9152941,6.4604878 44.9272059,6.87317073 44.9520221,7.25170732 Z M43.8740074,5.31219512 L43.8740074,4.54536585 C43.8740074,4.41268293 43.8640809,4.30536585 43.8452206,4.22341463 C43.7866544,3.97756098 43.6605882,3.77073171 43.4690074,3.60390244 C43.2754412,3.43707317 43.0421691,3.35317073 42.7731618,3.35317073 C42.3850368,3.35317073 42.0812868,3.50439024 41.8579412,3.80780488 C41.6365809,4.11121951 41.5244118,4.49853659 41.5244118,4.97170732 C41.5244118,5.42634146 41.630625,5.79512195 41.8440441,6.07902439 C42.069375,6.38146341 42.373125,6.53268293 42.7533088,6.53268293 C43.0947794,6.53268293 43.3677574,6.40682927 43.5752206,6.15414634 C43.7757353,5.92097561 43.8740074,5.64 43.8740074,5.31219512 Z" id="Shape"></path>
                <path d="M53.8491176,4.91414634 C53.8491176,5.62146341 53.6436397,6.20097561 53.2326838,6.65560976 C52.801875,7.12292683 52.2320956,7.35609756 51.5183824,7.35609756 C50.8324632,7.35609756 50.2855147,7.13268293 49.8765441,6.68390244 C49.4695588,6.23609756 49.2660662,5.67121951 49.2660662,4.9902439 C49.2660662,4.27804878 49.4755147,3.69365854 49.8963971,3.24 C50.3172794,2.78634146 50.8830882,2.55902439 51.5968015,2.55902439 C52.2827206,2.55902439 52.835625,2.78243902 53.2525368,3.2302439 C53.6495956,3.66536585 53.8491176,4.22731707 53.8491176,4.91414634 Z M52.7711029,4.94731707 C52.7711029,4.52292683 52.6777941,4.15902439 52.4921691,3.85560976 C52.2727941,3.48878049 51.9630882,3.30536585 51.5580882,3.30536585 C51.1411765,3.30536585 50.8235294,3.48878049 50.6041544,3.85560976 C50.4175368,4.15902439 50.3252206,4.52878049 50.3252206,4.96585366 C50.3252206,5.3902439 50.4185294,5.75414634 50.6041544,6.05756098 C50.8294853,6.42439024 51.1431618,6.60780488 51.5481618,6.60780488 C51.9452206,6.60780488 52.2579044,6.42146341 52.4822426,6.04780488 C52.6738235,5.73853659 52.7711029,5.37170732 52.7711029,4.94731707 Z" id="Shape"></path>
                <path d="M59.4397059,7.25170732 L58.4004044,7.25170732 L58.4004044,4.61756098 C58.4004044,3.80585366 58.0867279,3.4 57.4563971,3.4 C57.1476838,3.4 56.8985294,3.51121951 56.7059559,3.73463415 C56.5133824,3.95804878 56.4170956,4.22146341 56.4170956,4.52292683 L56.4170956,7.25073171 L55.3758088,7.25073171 L55.3758088,3.96682927 C55.3758088,3.56292683 55.3638971,3.12487805 55.3390809,2.65073171 L56.2523162,2.65073171 L56.3009559,3.3697561 L56.3297426,3.3697561 C56.4518382,3.14634146 56.6325,2.96195122 56.86875,2.81463415 C57.1516544,2.64292683 57.4663235,2.55609756 57.8127574,2.55609756 C58.2485294,2.55609756 58.6118382,2.69463415 58.9006985,2.97268293 C59.2610294,3.31317073 59.4397059,3.82146341 59.4397059,4.49658537 L59.4397059,7.25170732 Z" id="Shape"></path>
                <path d="M66.4477941,3.41853659 L65.3022794,3.41853659 L65.3022794,5.65268293 C65.3022794,6.2204878 65.5057721,6.50439024 65.9087868,6.50439024 C66.0954044,6.50439024 66.2502574,6.48878049 66.3723529,6.45658537 L66.3991544,7.23219512 C66.1936765,7.30829268 65.9236765,7.34634146 65.5911397,7.34634146 C65.1801838,7.34634146 64.8605515,7.22341463 64.6292647,6.97756098 C64.3969853,6.73170732 64.2818382,6.31804878 64.2818382,5.73756098 L64.2818382,3.41853659 L63.5979044,3.41853659 L63.5979044,2.65268293 L64.2818382,2.65268293 L64.2818382,1.8097561 L65.3012868,1.50731707 L65.3012868,2.65170732 L66.4468015,2.65170732 L66.4468015,3.41853659 L66.4477941,3.41853659 Z" id="Shape"></path>
                <path d="M71.9470588,7.25170732 L70.9057721,7.25170732 L70.9057721,4.63707317 C70.9057721,3.81268293 70.5920956,3.4 69.96375,3.4 C69.4813235,3.4 69.1517647,3.63902439 68.9711029,4.11707317 C68.9403309,4.21756098 68.9224632,4.3404878 68.9224632,4.48487805 L68.9224632,7.25073171 L67.8831618,7.25073171 L67.8831618,0.542439024 L68.9224632,0.542439024 L68.9224632,3.31414634 L68.9423162,3.31414634 C69.2698897,2.8097561 69.7394118,2.55804878 70.3479044,2.55804878 C70.7787132,2.55804878 71.1350735,2.69658537 71.4179779,2.97463415 C71.7703676,3.32097561 71.9470588,3.83609756 71.9470588,4.51707317 L71.9470588,7.25170732 Z" id="Shape"></path>
                <path d="M77.6349265,4.73463415 C77.6349265,4.91804878 77.6210294,5.07219512 77.5962132,5.19804878 L74.4763235,5.19804878 C74.4902206,5.65268293 74.6391176,5.99902439 74.9279779,6.23902439 C75.1920221,6.45365854 75.5325,6.56097561 75.9494118,6.56097561 C76.4109926,6.56097561 76.831875,6.48878049 77.2110662,6.34341463 L77.3738603,7.05365854 C76.9301471,7.24292683 76.4080147,7.33756098 75.8034926,7.33756098 C75.0788603,7.33756098 74.5080882,7.12780488 74.0951471,6.70829268 C73.6802206,6.28878049 73.4747426,5.72585366 73.4747426,5.0195122 C73.4747426,4.32585366 73.6663235,3.74829268 74.0524632,3.28780488 C74.4554779,2.79609756 75.0004412,2.5502439 75.6883456,2.5502439 C76.3613603,2.5502439 76.8725735,2.79609756 77.2180147,3.28780488 C77.4969485,3.67804878 77.6349265,4.16097561 77.6349265,4.73463415 Z M76.6422794,4.4702439 C76.6502206,4.16682927 76.5817279,3.90536585 76.4407721,3.68487805 C76.2601103,3.40097561 75.9851471,3.25853659 75.6129044,3.25853659 C75.2734191,3.25853659 74.9964706,3.39707317 74.7850368,3.67512195 C74.6123162,3.89658537 74.5100735,4.16097561 74.4763235,4.4702439 L76.6422794,4.4702439 Z" id="Shape"></path>
            </g>
        </g>
    </g>
</svg>