<?xml version="1.0" encoding="UTF-8"?>
<svg width="64px" height="37px" viewBox="0 0 64 37" version="1.1" xmlns="http://www.w3.org/2000/svg" xmlns:xlink="http://www.w3.org/1999/xlink">
    <!-- Generator: sketchtool 53.1 (72631) - https://sketchapp.com -->
    <title>AEF4B117-F650-4D87-B3A4-E1F78D40F39C@3x</title>
    <desc>Created with sketchtool.</desc>
    <g id="Email" stroke="none" stroke-width="1" fill="none" fill-rule="evenodd">
        <g id="1.0-confirm-your-email" transform="translate(-688.000000, -29.000000)" fill="#FE526D" fill-rule="nonzero">
            <g id="header" transform="translate(400.000000, 0.000000)">
                <g id="logo" transform="translate(288.000000, 29.000000)">
                    <path d="M49.8802935,15.1604879 C52.8857218,12.0530992 58.7158745,12.2386465 61.7908893,15.4652008 C64.1266531,17.9160991 63.9960016,22.382811 63.9960016,23.5331048 C63.9960016,27.6197699 63.9970165,31.7065299 63.9960016,35.79329 C63.9959094,35.9368631 64.0050439,36.0803415 63.9960016,36.2624413 L54.0936182,36.2624413 L54.0936182,24.5585194 C54.0936182,23.1359773 53.5618779,21.8748483 51.9927687,21.8748483 C50.8048185,21.8748483 49.8931187,22.6325695 49.8891512,23.8705446 L49.8891512,36.2557039 L39.985476,36.2557039 L39.985476,13.6539767 L49.8802935,13.6539767 L49.8802935,14.8804697 L49.8802935,15.1604879 Z M14.027378,27.9349334 L22.2067034,27.9349334 L22.2067034,36.2618769 L0.0107790431,36.2618769 C0.0107790431,35.7520117 0,31.0308483 0,31.0308483 L8.63466965,21.8552682 L0.234983139,21.8552682 L0.234983139,13.6756 L22.2467265,13.6756 C22.2467265,14.9709023 22.258068,17.5479372 22.233979,18.7956027 L14.027378,27.9349334 Z M25.7634452,13.79836 C27.1702953,14.6725282 28.8626446,15.1756193 30.7123475,15.1826143 C32.5846237,15.1897056 34.3202558,14.651524 35.7615905,13.720793 L35.7615905,36.2707551 L25.7634452,36.2707551 L25.7634452,13.79836 Z M30.769868,0.866541727 C33.9117932,0.877879398 36.3768157,3.29129159 36.3767219,6.35633642 C36.3767219,9.38821857 33.8597094,11.8162752 30.728764,11.8044652 C27.5428254,11.7924661 25.1068948,9.4255384 25.1112118,6.34594355 C25.1155286,3.22099804 27.5589667,0.855015095 30.769868,0.866541727 Z" id="Combined-Shape"></path>
                </g>
            </g>
        </g>
    </g>
</svg>